<svg xmlns="http://www.w3.org/2000/svg" version="1.1" xmlns:xlink="http://www.w3.org/1999/xlink" width="1500" height="939" viewBox="0 0 1500 939"><g transform="matrix(1,0,0,1,-0.9090909090909918,-1.5145161290323017)"><svg viewBox="0 0 396 248" data-background-color="#ffffff" preserveAspectRatio="xMidYMid meet" height="939" width="1500" xmlns="http://www.w3.org/2000/svg" xmlns:xlink="http://www.w3.org/1999/xlink"><g id="tight-bounds" transform="matrix(1,0,0,1,0.2400000000000091,0.4000000000000057)"><svg viewBox="0 0 395.52 247.2" height="247.2" width="395.52"><g><svg></svg></g><g><svg viewBox="0 0 395.52 247.2" height="247.2" width="395.52"><g transform="matrix(1,0,0,1,135.94467127158555,47.215199999999996)"><svg viewBox="0 0 123.63065745682889 152.7696" height="152.7696" width="123.63065745682889"><g><svg viewBox="0 0 123.63065745682889 152.7696" height="152.7696" width="123.63065745682889"><g><svg viewBox="0 0 123.63065745682889 152.7696" height="152.7696" width="123.63065745682889"><g><svg viewBox="0 0 123.63065745682889 152.7696" height="152.7696" width="123.63065745682889"><g id="textblocktransform"><svg viewBox="0 0 123.63065745682889 152.7696" height="152.7696" width="123.63065745682889" id="textblock"><g><svg viewBox="0 0 123.63065745682889 152.7696" height="152.7696" width="123.63065745682889"><g transform="matrix(1,0,0,1,0,0)"><svg width="123.63065745682889" viewBox="4.88 -31.85 25.77 31.85" height="152.7696" data-palette-color="url(#eaeb9fab-9eae-4c29-bde8-dc457109d523)"></svg></g></svg></g></svg></g></svg></g></svg></g></svg></g></svg></g><g><path d="M185.415 0c30.402 0 58.24 10.976 79.769 29.183l-11.148 0c-19.26-14.022-42.974-22.294-68.621-22.295-25.647 0-49.361 8.272-68.621 22.295l-11.147 0c21.528-18.206 49.366-29.183 79.768-29.183zM185.415 247.2c-30.402 0-58.24-10.976-79.768-29.183h11.147c19.26 14.022 42.974 22.294 68.621 22.295 25.647 0 49.361-8.272 68.621-22.295l11.148 0c-21.528 18.206-49.366 29.183-79.769 29.183z" fill="#fcbdea" stroke="transparent" data-fill-palette-color="tertiary"></path></g></svg></g><defs></defs><mask id="634a2dcd-384e-4c6a-81ba-c788fa0e8dd2"><g id="SvgjsG1003"><svg viewBox="0 0 395.52 247.2" height="247.2" width="395.52"><g><svg></svg></g><g><svg viewBox="0 0 395.52 247.2" height="247.2" width="395.52"><g transform="matrix(1,0,0,1,135.94467127158555,47.215199999999996)"><svg viewBox="0 0 123.63065745682889 152.7696" height="152.7696" width="123.63065745682889"><g><svg viewBox="0 0 123.63065745682889 152.7696" height="152.7696" width="123.63065745682889"><g><svg viewBox="0 0 123.63065745682889 152.7696" height="152.7696" width="123.63065745682889"><g><svg viewBox="0 0 123.63065745682889 152.7696" height="152.7696" width="123.63065745682889"><g id="SvgjsG1002"><svg viewBox="0 0 123.63065745682889 152.7696" height="152.7696" width="123.63065745682889" id="SvgjsSvg1001"><g><svg viewBox="0 0 123.63065745682889 152.7696" height="152.7696" width="123.63065745682889"><g transform="matrix(1,0,0,1,0,0)"><svg width="123.63065745682889" viewBox="4.88 -31.85 25.77 31.85" height="152.7696" data-palette-color="url(#eaeb9fab-9eae-4c29-bde8-dc457109d523)"><path d="M4.88 0L4.88-31.85 14.63-31.85Q19.48-31.85 23.06-29.89 26.65-27.93 28.65-24.35 30.65-20.78 30.65-15.93L30.65-15.93Q30.65-11.1 28.65-7.53 26.65-3.95 23.06-1.98 19.48 0 14.63 0L14.63 0 4.88 0ZM14.63-27.58L9.63-27.58 9.63-4.2 14.63-4.2Q18.03-4.2 20.46-5.73 22.9-7.25 24.23-9.9 25.55-12.55 25.55-15.93L25.55-15.93Q25.55-19.3 24.23-21.94 22.9-24.58 20.46-26.08 18.03-27.58 14.63-27.58L14.63-27.58Z" opacity="1" transform="matrix(1,0,0,1,0,0)" fill="white" class="wordmark-text-0" id="SvgjsPath1000"></path></svg></g></svg></g></svg></g></svg></g></svg></g></svg></g></svg></g><g><path d="M185.415 0c30.402 0 58.24 10.976 79.769 29.183l-11.148 0c-19.26-14.022-42.974-22.294-68.621-22.295-25.647 0-49.361 8.272-68.621 22.295l-11.147 0c21.528-18.206 49.366-29.183 79.768-29.183zM185.415 247.2c-30.402 0-58.24-10.976-79.768-29.183h11.147c19.26 14.022 42.974 22.294 68.621 22.295 25.647 0 49.361-8.272 68.621-22.295l11.148 0c-21.528 18.206-49.366 29.183-79.769 29.183z" fill="black" stroke="transparent"></path></g></svg></g><defs><mask></mask></defs></svg><rect width="395.52" height="247.2" fill="black" stroke="none" visibility="hidden"></rect></g></mask><linearGradient x1="0.054" x2="0.941" y1="0.5" y2="0.5" id="eaeb9fab-9eae-4c29-bde8-dc457109d523"><stop stop-color="#8c8c8c" offset="0"></stop><stop stop-color="#e3e4e5" offset="0.498"></stop><stop stop-color="#8c8c8c" offset="1"></stop></linearGradient><rect width="395.52" height="247.2" fill="url(#eaeb9fab-9eae-4c29-bde8-dc457109d523)" mask="url(#634a2dcd-384e-4c6a-81ba-c788fa0e8dd2)" data-fill-palette-color="primary"></rect></svg><rect width="395.52" height="247.2" fill="none" stroke="none" visibility="hidden"></rect></g></svg></g></svg>